<svg width="16.000000" height="16.000000" viewBox="0 0 16 16" fill="none" xmlns="http://www.w3.org/2000/svg" xmlns:xlink="http://www.w3.org/1999/xlink">
	<desc>
			Created with Pixso.
	</desc>
	<defs>
		<clipPath id="clip448_9552">
			<rect id="shopping-cart 1" width="16.000000" height="16.000000" fill="white" fill-opacity="0"/>
		</clipPath>
	</defs>
	<rect id="shopping-cart 1" width="16.000000" height="16.000000" fill="#FFFFFF" fill-opacity="0"/>
	<g clip-path="url(#clip448_9552)">
		<path id="Vector" d="M15.14 2.71C14.95 2.49 14.71 2.31 14.45 2.18C14.18 2.06 13.89 2 13.6 2L2.82 2L2.79 1.76C2.74 1.27 2.5 0.83 2.14 0.5C1.77 0.17 1.3 0 0.81 0L0.66 0C0.49 0 0.32 0.07 0.19 0.19C0.07 0.32 0 0.49 0 0.66C0 0.84 0.07 1.01 0.19 1.13C0.32 1.26 0.49 1.33 0.66 1.33L0.81 1.33C0.97 1.33 1.13 1.39 1.25 1.5C1.37 1.6 1.45 1.75 1.47 1.92L2.39 9.72C2.48 10.53 2.87 11.28 3.48 11.82C4.09 12.36 4.88 12.66 5.7 12.66L12.66 12.66C12.84 12.66 13.01 12.59 13.13 12.47C13.26 12.34 13.33 12.17 13.33 12C13.33 11.82 13.26 11.65 13.13 11.52C13.01 11.4 12.84 11.33 12.66 11.33L5.7 11.33C5.29 11.33 4.88 11.2 4.55 10.96C4.21 10.72 3.96 10.38 3.82 10L11.77 10C12.55 10 13.3 9.72 13.9 9.22C14.5 8.72 14.91 8.02 15.05 7.25L15.57 4.35C15.62 4.06 15.61 3.77 15.54 3.48C15.46 3.2 15.33 2.94 15.14 2.71Z" fill="#000000" fill-opacity="1.000000" fill-rule="nonzero"/>
		<path id="Vector" d="M6 14.66C6 15.4 5.4 16 4.66 16C3.92 16 3.33 15.4 3.33 14.66C3.33 13.93 3.92 13.33 4.66 13.33C5.4 13.33 6 13.93 6 14.66Z" fill="#000000" fill-opacity="1.000000" fill-rule="evenodd"/>
		<path id="Vector" d="M12.66 14.66C12.66 15.4 12.06 16 11.33 16C10.59 16 10 15.4 10 14.66C10 13.93 10.59 13.33 11.33 13.33C12.06 13.33 12.66 13.93 12.66 14.66Z" fill="#000000" fill-opacity="1.000000" fill-rule="evenodd"/>
	</g>
</svg>
