<svg width="256.000000" height="62.000000" viewBox="0 0 256 62" fill="none" xmlns="http://www.w3.org/2000/svg" xmlns:xlink="http://www.w3.org/1999/xlink">
	<desc>
			Created with Pixso.
	</desc>
	<defs/>
	<path id="производитель детской одежды" d="M187.87 47.41Q188.4 46.87 188.49 45.89L187.33 45.89Q187.26 46.62 186.89 46.89Q186.52 47.17 185.88 47.17Q185.15 47.17 184.82 46.91Q184.49 46.65 184.42 45.89L183.27 45.89Q183.34 46.95 183.91 47.49Q184.48 48.02 185.85 48.02Q187.18 48.02 187.79 47.48Q187.83 47.44 187.87 47.41ZM28.25 56.69Q28.78 55.54 28.78 53.98Q28.78 52.43 28.25 51.27Q27.91 50.52 27.36 49.99Q27.06 49.7 26.71 49.48Q25.69 48.84 24.19 48.84Q22.62 48.84 21.59 49.49Q21.18 49.75 20.85 50.09Q20.36 50.59 20.06 51.28Q19.55 52.43 19.55 53.97Q19.55 55.52 20.06 56.68Q20.37 57.41 20.89 57.93Q21.2 58.25 21.59 58.49Q22.62 59.14 24.17 59.14Q25.69 59.14 26.71 58.49Q27.07 58.26 27.37 57.97Q27.92 57.44 28.25 56.69ZM67.27 56.69Q67.8 55.54 67.8 53.98Q67.8 52.43 67.27 51.27Q66.93 50.52 66.37 49.99Q66.08 49.7 65.73 49.48Q64.7 48.84 63.21 48.84Q61.64 48.84 60.61 49.49Q60.19 49.75 59.87 50.09Q59.38 50.59 59.07 51.28Q58.57 52.43 58.57 53.97Q58.57 55.52 59.07 56.68Q59.39 57.41 59.9 57.93Q60.22 58.25 60.61 58.49Q61.64 59.14 63.19 59.14Q64.7 59.14 65.73 58.49Q66.09 58.26 66.39 57.97Q66.93 57.44 67.27 56.69ZM178.94 56.69Q179.46 55.54 179.46 53.98Q179.46 52.43 178.94 51.27Q178.6 50.52 178.04 49.99Q177.75 49.7 177.39 49.48Q176.37 48.84 174.87 48.84Q173.31 48.84 172.28 49.49Q171.86 49.75 171.53 50.09Q171.04 50.59 170.74 51.28Q170.24 52.43 170.24 53.97Q170.24 55.52 170.74 56.68Q171.06 57.41 171.57 57.93Q171.89 58.25 172.28 58.49Q173.31 59.14 174.86 59.14Q176.37 59.14 177.39 58.49Q177.76 58.26 178.06 57.97Q178.6 57.44 178.94 56.69ZM204.56 56.69Q205.09 55.54 205.09 53.98Q205.09 52.43 204.56 51.27Q204.22 50.52 203.66 49.99Q203.37 49.7 203.02 49.48Q201.99 48.84 200.5 48.84Q198.93 48.84 197.9 49.49Q197.49 49.75 197.16 50.09Q196.67 50.59 196.37 51.28Q195.86 52.43 195.86 53.97Q195.86 55.52 196.37 56.68Q196.68 57.41 197.2 57.93Q197.51 58.25 197.9 58.49Q198.93 59.14 200.48 59.14Q201.99 59.14 203.02 58.49Q203.38 58.26 203.68 57.97Q204.22 57.44 204.56 56.69ZM47.31 52.6Q47.65 52.08 47.65 51.34Q47.65 50.82 47.46 50.39Q47.25 49.92 46.81 49.56Q45.97 48.86 44.35 48.86Q43.27 48.86 42.41 49.16Q41.55 49.46 40.96 49.9L41.56 50.75Q42.15 50.37 42.77 50.14Q43.4 49.9 44.33 49.9Q45.23 49.9 45.79 50.3Q46.01 50.46 46.14 50.67Q46.35 51 46.35 51.46Q46.35 51.83 46.21 52.13Q46.03 52.52 45.61 52.8Q44.88 53.3 43.4 53.3L42.04 53.3L42.04 54.35L43.46 54.35Q44.92 54.35 45.73 54.78Q46.11 54.98 46.31 55.3Q46.54 55.66 46.54 56.17Q46.54 56.71 46.3 57.11Q46.14 57.39 45.85 57.6Q45.16 58.1 43.82 58.1Q43.13 58.1 42.35 57.93Q41.57 57.75 40.92 57.44L40.92 58.59Q41.55 58.9 42.28 59.02Q43.02 59.14 43.83 59.14Q45.84 59.14 46.85 58.31Q47.34 57.91 47.6 57.39Q47.86 56.84 47.86 56.17Q47.86 55.52 47.58 55.03Q47.43 54.77 47.2 54.56Q46.54 53.94 45.29 53.77L45.29 53.72Q46.36 53.55 47.01 52.96Q47.18 52.79 47.31 52.6ZM155.95 50.45Q156.72 49.96 157.81 49.96Q158.48 49.96 159.05 50.13Q159.61 50.3 160.07 50.51L160.58 49.45Q159.4 48.86 157.82 48.86Q156.28 48.86 155.2 49.51Q154.72 49.8 154.35 50.18Q153.88 50.67 153.57 51.31Q153.02 52.47 153.02 53.98Q153.02 55.55 153.53 56.71Q153.87 57.47 154.42 58.01Q154.71 58.29 155.06 58.51Q156.09 59.14 157.61 59.14Q158.44 59.14 159.03 59.04Q159.4 58.98 159.76 58.87Q159.98 58.81 160.19 58.73L160.19 57.64Q159.63 57.81 159.04 57.92Q158.45 58.03 157.79 58.03Q156.46 58.03 155.64 57.38Q155.4 57.19 155.21 56.94Q154.35 55.86 154.35 54Q154.35 52.12 155.27 51.04Q155.57 50.69 155.95 50.45ZM1.35 49L1.35 59L2.61 59L2.61 50.1L7.61 50.1L7.61 59L8.86 59L8.86 49L1.35 49ZM17.09 49.77Q16.19 49 14.23 49L11.59 49L11.59 59L12.85 59L12.85 55.1L14 55.1Q15.49 55.1 16.37 54.65Q17.21 54.22 17.59 53.53Q17.6 53.51 17.61 53.49Q17.77 53.17 17.87 52.84Q17.98 52.41 17.98 51.94Q17.98 50.91 17.5 50.22Q17.32 49.97 17.09 49.77ZM32.18 49L31 49L31 59L32.41 59L37.92 50.68L37.98 50.68Q37.96 50.89 37.94 51.38Q37.91 51.87 37.88 52.46Q37.86 53.04 37.86 53.56L37.86 59L39.04 59L39.04 49L37.64 49L32.14 57.27L32.08 57.27Q32.11 57.05 32.13 56.58Q32.15 56.1 32.17 55.52Q32.18 54.95 32.18 54.49L32.18 49ZM55.66 49.55Q54.71 49 52.83 49L49.97 49L49.97 59L53.49 59Q55.1 59 56.03 58.25Q56.34 58.01 56.54 57.69Q56.96 57.06 56.96 56.15Q56.96 55.37 56.67 54.88Q56.52 54.64 56.33 54.46Q56.12 54.26 55.86 54.12Q55.35 53.86 54.72 53.76L54.72 53.69Q55.58 53.53 56.06 53.02Q56.1 52.98 56.13 52.94Q56.23 52.82 56.31 52.69Q56.63 52.18 56.63 51.48Q56.63 50.51 56.15 49.95Q55.95 49.71 55.66 49.55ZM76.46 57.87L76.46 49L71.84 49Q71.79 50.1 71.56 51.29Q71.34 52.48 70.99 53.67Q70.64 54.85 70.18 55.93Q69.73 57.01 69.23 57.87L68.46 57.87L68.46 61.63L69.66 61.63L69.66 59L76.53 59L76.53 61.63L77.74 61.63L77.74 57.87L76.46 57.87ZM80.59 49L79.42 49L79.42 59L80.82 59L86.33 50.68L86.39 50.68Q86.37 50.89 86.35 51.38Q86.32 51.87 86.3 52.46Q86.28 53.04 86.28 53.56L86.28 59L87.45 59L87.45 49L86.05 49L80.55 57.27L80.5 57.27Q80.52 57.05 80.54 56.58Q80.56 56.1 80.58 55.52Q80.59 54.95 80.59 54.49L80.59 49ZM92.06 59L93.32 59L93.32 50.1L96.43 50.1L96.43 49L88.94 49L88.94 50.1L92.06 50.1L92.06 59ZM97.94 59L103.53 59L103.53 57.89L99.2 57.89L99.2 54.32L103.27 54.32L103.27 53.23L99.2 53.23L99.2 50.1L103.53 50.1L103.53 49L97.94 49L97.94 59ZM111.66 59L112.92 59L112.92 49L107.45 49Q107.25 50.55 107.06 51.93Q106.87 53.3 106.71 54.33Q106.55 55.35 106.44 55.89Q106.34 56.39 106.2 56.9Q106.06 57.41 105.81 57.76Q105.69 57.93 105.52 58.01Q105.36 58.1 105.15 58.1Q104.93 58.1 104.73 58.05Q104.53 58 104.38 57.93L104.38 58.98Q104.56 59.05 104.81 59.1Q105.05 59.15 105.29 59.15Q106 59.15 106.44 58.81Q106.88 58.48 107.15 57.82Q107.42 57.16 107.6 56.22Q107.75 55.5 107.91 54.46Q108.06 53.42 108.21 52.28Q108.37 51.14 108.49 50.1L111.66 50.1L111.66 59ZM115.63 49L115.63 59L118.93 59Q120.76 59 121.65 58.19Q121.99 57.89 122.2 57.52Q122.55 56.9 122.55 56.07Q122.55 55.43 122.32 54.9Q122.26 54.76 122.19 54.63L122.18 54.62Q121.82 53.98 121 53.6Q120.17 53.23 118.77 53.23L116.9 53.23L116.9 49L115.63 49ZM135.29 57.87L135.29 49L130.67 49Q130.62 50.1 130.39 51.29Q130.17 52.48 129.82 53.67Q129.47 54.85 129.01 55.93Q128.56 57.01 128.06 57.87L127.29 57.87L127.29 61.63L128.49 61.63L128.49 59L135.37 59L135.37 61.63L136.57 61.63L136.57 57.87L135.29 57.87ZM138.23 59L143.82 59L143.82 57.89L139.5 57.89L139.5 54.32L143.57 54.32L143.57 53.23L139.5 53.23L139.5 50.1L143.82 50.1L143.82 49L138.23 49L138.23 59ZM147.92 59L149.18 59L149.18 50.1L152.29 50.1L152.29 49L144.8 49L144.8 50.1L147.92 50.1L147.92 59ZM168.15 59L169.66 59L165.13 53.86L169.47 49L168.04 49L163.63 53.84L163.63 49L162.37 49L162.37 59L163.63 59L163.63 53.93L168.15 59ZM182.87 49L181.69 49L181.69 59L183.09 59L188.61 50.68L188.66 50.68Q188.65 50.89 188.62 51.38Q188.59 51.87 188.57 52.46Q188.55 53.04 188.55 53.56L188.55 59L189.73 59L189.73 49L188.33 49L182.82 57.27L182.77 57.27Q182.8 57.05 182.82 56.58Q182.84 56.1 182.85 55.52Q182.87 54.95 182.87 54.49L182.87 49ZM213.75 57.87L213.75 49L209.14 49Q209.08 50.1 208.85 51.29Q208.63 52.48 208.28 53.67Q207.93 54.85 207.47 55.93Q207.02 57.01 206.52 57.87L205.75 57.87L205.75 61.63L206.95 61.63L206.95 59L213.82 59L213.82 61.63L215.03 61.63L215.03 57.87L213.75 57.87ZM216.69 59L222.28 59L222.28 57.89L217.95 57.89L217.95 54.32L222.03 54.32L222.03 53.23L217.95 53.23L217.95 50.1L222.28 50.1L222.28 49L216.69 49L216.69 59ZM223.27 49L227.15 53.86L223.13 59L224.58 59L228.5 53.93L228.5 59L229.7 59L229.7 53.93L233.61 59L235.05 59L231.04 53.84L234.92 49L233.52 49L229.7 53.84L229.7 49L228.5 49L228.5 53.84L224.68 49L223.27 49ZM243.17 57.87L243.17 49L238.55 49Q238.49 50.1 238.27 51.29Q238.04 52.48 237.69 53.67Q237.35 54.85 236.89 55.93Q236.43 57.01 235.93 57.87L235.16 57.87L235.16 61.63L236.37 61.63L236.37 59L243.24 59L243.24 61.63L244.44 61.63L244.44 57.87L243.17 57.87ZM246.11 49L246.11 59L249.06 59Q250.91 59 251.76 58.19Q252.02 57.94 252.21 57.63Q252.6 56.97 252.6 56.07Q252.6 55.37 252.34 54.79Q252.3 54.71 252.26 54.63Q252.25 54.6 252.23 54.58Q251.89 53.97 251.11 53.6Q250.31 53.23 248.91 53.23L247.37 53.23L247.37 49L246.11 49ZM254.14 49L254.14 59L255.4 59L255.4 49L254.14 49ZM21.68 56.96Q20.88 55.87 20.88 53.98Q20.88 52.09 21.69 51.02Q21.87 50.78 22.09 50.6Q22.87 49.95 24.19 49.95Q25.5 49.95 26.27 50.6Q26.49 50.79 26.66 51.02Q27.45 52.09 27.45 53.98Q27.45 55.87 26.66 56.96Q26.49 57.2 26.27 57.39Q25.5 58.04 24.17 58.04Q22.87 58.04 22.1 57.4Q21.86 57.21 21.68 56.96ZM60.7 56.96Q59.9 55.87 59.9 53.98Q59.9 52.09 60.7 51.02Q60.89 50.78 61.11 50.6Q61.89 49.95 63.21 49.95Q64.52 49.95 65.29 50.6Q65.51 50.79 65.68 51.02Q66.47 52.09 66.47 53.98Q66.47 55.87 65.68 56.96Q65.51 57.2 65.29 57.39Q64.52 58.04 63.19 58.04Q61.89 58.04 61.12 57.4Q60.88 57.21 60.7 56.96ZM172.37 56.96Q171.57 55.87 171.57 53.98Q171.57 52.09 172.37 51.02Q172.55 50.78 172.78 50.6Q173.56 49.95 174.87 49.95Q176.19 49.95 176.96 50.6Q177.17 50.79 177.35 51.02Q178.13 52.09 178.13 53.98Q178.13 55.87 177.35 56.96Q177.17 57.2 176.95 57.39Q176.19 58.04 174.86 58.04Q173.56 58.04 172.78 57.4Q172.55 57.21 172.37 56.96ZM197.99 56.96Q197.19 55.87 197.19 53.98Q197.19 52.09 198 51.02Q198.18 50.78 198.4 50.6Q199.18 49.95 200.5 49.95Q201.81 49.95 202.58 50.6Q202.8 50.79 202.97 51.02Q203.76 52.09 203.76 53.98Q203.76 55.87 202.97 56.96Q202.8 57.2 202.58 57.39Q201.81 58.04 200.48 58.04Q199.18 58.04 198.41 57.4Q198.17 57.21 197.99 56.96ZM12.85 50.08L14.12 50.08Q15.45 50.08 16.07 50.55Q16.21 50.66 16.32 50.8Q16.68 51.25 16.68 52Q16.68 52.87 16.25 53.34Q16.13 53.47 15.98 53.56Q15.28 54.03 13.86 54.03L12.85 54.03L12.85 50.08ZM54.84 52.84Q54.37 53.26 53.08 53.26L51.24 53.26L51.24 50.08L52.89 50.08Q54.16 50.08 54.74 50.44Q54.92 50.55 55.04 50.7Q55.32 51.05 55.32 51.62Q55.32 52.3 54.99 52.7Q54.92 52.78 54.84 52.84ZM72.67 51.97Q72.89 50.95 72.95 50.13L75.22 50.13L75.22 57.87L70.56 57.87Q71 57.12 71.4 56.13Q71.8 55.13 72.13 54.06Q72.46 52.99 72.67 51.97ZM131.51 51.97Q131.72 50.95 131.78 50.13L134.05 50.13L134.05 57.87L129.39 57.87Q129.83 57.12 130.23 56.13Q130.63 55.13 130.96 54.06Q131.29 52.99 131.51 51.97ZM209.97 51.97Q210.18 50.95 210.24 50.13L212.51 50.13L212.51 57.87L207.85 57.87Q208.29 57.12 208.69 56.13Q209.09 55.13 209.42 54.06Q209.75 52.99 209.97 51.97ZM239.38 51.97Q239.6 50.95 239.65 50.13L241.92 50.13L241.92 57.87L237.26 57.87Q237.71 57.12 238.11 56.13Q238.51 55.13 238.84 54.06Q239.16 52.99 239.38 51.97ZM51.24 57.93L51.24 54.31L53.15 54.31Q54.54 54.31 55.08 54.79Q55.28 54.97 55.41 55.19Q55.62 55.57 55.62 56.06Q55.62 56.66 55.34 57.1Q55.24 57.27 55.1 57.42Q54.58 57.93 53.25 57.93L51.24 57.93ZM120.93 57.17Q120.36 57.92 118.8 57.92L116.9 57.92L116.9 54.32L118.62 54.32Q119.91 54.32 120.58 54.71Q120.77 54.83 120.91 54.99Q121.25 55.38 121.25 56.07Q121.25 56.74 120.93 57.17ZM250.73 57.47Q250.15 57.93 248.95 57.93L247.37 57.93L247.37 54.33L248.77 54.33Q250.06 54.33 250.68 54.72Q250.82 54.81 250.93 54.92Q251.3 55.32 251.3 56.07Q251.3 56.82 250.94 57.27Q250.84 57.38 250.73 57.47Z" fill="#111111" fill-opacity="1.000000" fill-rule="evenodd"/>
	<path id="KATLEN" d="M30.68 42L20.24 42L20.24 11.98L30.68 11.98L30.68 21.29Q30.68 23.36 30.45 25.08L30.68 25.08Q31.22 23.59 32.25 21.7L37.43 11.98L49.22 11.98L39.86 26.69L50.21 42L37.61 42L32.12 32.36Q31.53 31.42 30.68 29.49L30.45 29.49Q30.68 30.79 30.68 32.32L30.68 42ZM68.04 38.26L76.32 38.26L77.31 42L88.87 42L78.16 11.98L66.1 11.98L55.71 42L67.23 42L68.04 38.26ZM109.85 42L99.13 42L99.13 21.47L93.01 21.75L93.01 11.98L115.96 11.98L115.96 21.75L109.85 21.47L109.85 42ZM124.49 42L144.56 42L144.56 32.32L135.38 32.32L135.38 11.98L124.49 11.98L124.49 42ZM173.91 42L153.39 42L153.39 11.98L173.64 11.98L173.64 20.21L164.28 20.21L164.28 23L172.79 23L172.79 30.88L164.28 30.88L164.28 33.76L173.91 33.76L173.91 42ZM183.75 42L194.14 42L194.14 31.78C194.14 30.4 193.92 28.55 193.47 26.25L193.78 26.25C194.5 27.8 195.19 29.11 195.85 30.16L203.32 42L213.76 42L213.76 11.98L203.32 11.98L203.32 21.52Q203.32 24.67 204.27 28.63L203.95 28.63C203.26 27.04 202.32 25.27 201.12 23.32L194.14 11.98L183.75 11.98L183.75 42ZM72.45 22.01C72.6 23.25 72.79 24.37 73.03 25.39L74.43 31.15L70.06 31.15L71.55 25.39C71.85 24.22 72.01 23.09 72.04 22.01L72.45 22.01Z" fill="#6F9033" fill-opacity="1.000000" fill-rule="evenodd"/>
	<circle id="Ellipse 6" cx="210.500000" cy="12.500000" r="8.500000" fill="#FFFFFF" fill-opacity="1.000000"/>
	<path id="Vector 10" d="M215 16.5C210.2 18.9 205 16 203.5 13.5C202 11 202.33 8.83 202.5 8C202.9 4.8 206.66 3.33 208.5 3C211.3 2.59 214.66 0.83 216 0L218 6C219.6 12.4 216.66 15.66 215 16.5Z" fill="#6F9033" fill-opacity="1.000000" fill-rule="nonzero"/>
	<path id="Vector 11" d="M215.5 6.5C216.16 8.5 216.5 12.9 212.5 " stroke="#FFFFFF" stroke-opacity="1.000000" stroke-width="1.000000"/>
</svg>
